# xmcd CD database file
#
# Track frame offsets:
#	150
#	31747
#	53142
#	77313
#	101231
#	122351
#	146557
#	171423
#	184362
#	206050
#	229601
#	248415
#	259292
#	289891
#	325847
#	351389
#	365998
#
# Disc length: 5260 seconds
#
# Revision: 0
# Processed by: cddbd v1.5.2PL0 Copyright (c) Steve Scherf et al.
# Submitted via: CDex 1.51
#
DISCID=04148a11
DTITLE=Leon de Winter - Leo Kaplan
DYEAR=2010
DGENRE=Hörbuch
TTITLE0=Kaplan 01
TTITLE1=Kaplan 02
TTITLE2=Kaplan 03
TTITLE3=Kaplan 04
TTITLE4=Kaplan 05
TTITLE5=Kaplan 06
TTITLE6=Kaplan 07
TTITLE7=Kaplan 08
TTITLE8=Kaplan 09
TTITLE9=Kaplan 10
TTITLE10=Kaplan 11
TTITLE11=Kaplan 12
TTITLE12=Kaplan 13
TTITLE13=Kaplan 14
TTITLE14=Kaplan 15
TTITLE15=Kaplan 16
TTITLE16=Kaplan 17
EXTD=YEAR: 2010
EXTT0=
EXTT1=
EXTT2=
EXTT3=
EXTT4=
EXTT5=
EXTT6=
EXTT7=
EXTT8=
EXTT9=
EXTT10=
EXTT11=
EXTT12=
EXTT13=
EXTT14=
EXTT15=
EXTT16=
PLAYORDER=
